<?xml version="1.0" encoding="UTF-8"?>
<svg xmlns="http://www.w3.org/2000/svg" width="528.0" height="360.0">
  <rect width="100%" height="100%" fill="none"/>
  <g transform="translate(24.0,345.0) scale(2.4 -2.4)">
    <defs>
      <marker id="arrowhead" viewBox="0 0 80 80" refX="35" refY="25" style="stroke-width: 2px; stroke: black; fill: black" markerWidth="7" markerHeight="11" markerUnits="userSpaceOnUse" orient="auto-start-reverse">
        <path d="M 5,25 L 0,40 L 40,25 L 0,10 Z"/>
      </marker>
    </defs>
    <path d="M 0.0000,0.0000 L 200.0000,0.0000 L 100.0000,100.0000 Z" fill="pink" stroke-width="1.0" stroke="red" id="ydk-ydk"/>
    <path d="M 25.0000,25.0000 L 175.0000,25.0000 L 100.0000,100.0000 Z" fill="lightblue" stroke-width="1.0" stroke="blue" id="yk-ydk"/>
    <path d="M 56.0000,56.0000 L 144.0000,56.0000 L 100.0000,100.0000 Z" fill="lightgreen" stroke-width="1.0" stroke="green" id="yk-yk"/>
    <text x="100" y="-59.0" font-family="Arial" font-size="6" text-anchor="middle" fill="black" transform="scale(1 -1)">Stuff you know</text>
    <text x="100" y="-27.999999999999996" font-family="Arial" font-size="6" text-anchor="middle" fill="black" transform="scale(1 -1)">Stuff you know you don't know</text>
    <text x="100" y="56" font-family="Arial" font-size="6" text-anchor="middle" fill="black" transform="scale(1 -1) translate(0 -60)">Stuff you don't know you don't know</text>
    <g>
      <path d="M 110,56.0 L 110,53.0 L 112,55.0 L 114,53.0 L 114,56.0" fill="lightgreen" stroke-width="0.9" stroke="green" id="banner"/>
      <path d="M 110.45,56.9 L 110.45,55.55 L 113.55,55.55 L 113.55,56.9" fill="lightgreen" stroke-width="0" stroke="blue" id="banner"/>
    </g>
    <g>
      <path d="M 82,56.0 L 82,44.0 L 84,46.0 L 86,44.0 L 86,56.0" fill="lightgreen" stroke-width="0.9" stroke="green" id="banner"/>
      <path d="M 82.45,56.9 L 82.45,55.55 L 85.55,55.55 L 85.55,56.9" fill="lightgreen" stroke-width="0" stroke="blue" id="banner"/>
    </g>
    <g>
      <path d="M 90,56.0 L 90,37.0 L 93,40.0 L 96,37.0 L 96,56.0" fill="lightgreen" stroke-width="0.9" stroke="green" id="banner"/>
      <path d="M 90.45,56.9 L 90.45,55.55 L 95.55,55.55 L 95.55,56.9" fill="lightgreen" stroke-width="0" stroke="blue" id="banner"/>
    </g>
    <g id="technical-depth">
      <line x1="30.0" y1="99.99999999999999" x2="97" y2="99.99999999999999" stroke="black" stroke-width="0.5"/>
      <line x1="30.0" y1="56.0" x2="53.00000000000001" y2="56.0" stroke="black" stroke-width="0.5"/>
      <line x1="38.0" y1="58.0" x2="38.0" y2="97.99999999999999" stroke="black" stroke-width="0.5" marker-end="url(#arrowhead)" marker-start="url(#arrowhead)"/>
      <text x="40.0" y="-79.99999999999999" font-family="Arial" font-size="6" fill="black" transform="scale(1 -1)" text-anchor="start" marker-end="url(#arrowhead)">
        <tspan dx="0" dy="0">Technical</tspan>
        <tspan dx="-24" dy="7">Depth</tspan>
      </text>
    </g>
    <g id="technical-breadth">
      <line x1="25.0" y1="27.999999999999996" x2="25.0" y2="130.0" stroke="black" stroke-width="0.5"/>
      <line x1="175.0" y1="27.999999999999996" x2="175.0" y2="130.0" stroke="black" stroke-width="0.5"/>
      <line x1="27.0" y1="114.99999999999999" x2="68" y2="114.99999999999999" stroke="black" stroke-width="0.5" marker-start="url(#arrowhead)"/>
      <line x1="134" y1="114.99999999999999" x2="173.0" y2="114.99999999999999" stroke="black" stroke-width="0.5" marker-end="url(#arrowhead)"/>
      <text x="100" y="-52.999999999999986" font-family="Arial" font-size="6" text-anchor="middle" fill="black" transform="scale(1 -1) translate(0 -60)">Technical breadth</text>
    </g>
  </g>
</svg>
